
<region>
sample=../Samples/perc/close/agogo/Agogo_High_v1_rr1_Close.wav
hivel=42
seq_length=8
amp_velcurve_42=1

<region>
sample=../Samples/perc/close/agogo/Agogo_High_v1_rr2_Close.wav
hivel=42
seq_length=8
seq_position=2
amp_velcurve_42=1

<region>
sample=../Samples/perc/close/agogo/Agogo_High_v1_rr3_Close.wav
hivel=42
seq_length=8
seq_position=3
amp_velcurve_42=1

<region>
sample=../Samples/perc/close/agogo/Agogo_High_v1_rr4_Close.wav
hivel=42
seq_length=8
seq_position=4
amp_velcurve_42=1

<region>
sample=../Samples/perc/close/agogo/Agogo_High_v1_rr5_Close.wav
hivel=42
seq_length=8
seq_position=5
amp_velcurve_42=1

<region>
sample=../Samples/perc/close/agogo/Agogo_High_v1_rr6_Close.wav
hivel=42
seq_length=8
seq_position=6
amp_velcurve_42=1

<region>
sample=../Samples/perc/close/agogo/Agogo_High_v1_rr7_Close.wav
hivel=42
seq_length=8
seq_position=7
amp_velcurve_42=1

<region>
sample=../Samples/perc/close/agogo/Agogo_High_v1_rr8_Close.wav
hivel=42
seq_length=8
seq_position=8
amp_velcurve_42=1

<region>
sample=../Samples/perc/close/agogo/Agogo_High_v2_rr1_Close.wav
lovel=43
hivel=84
seq_length=8
amp_velcurve_84=1

<region>
sample=../Samples/perc/close/agogo/Agogo_High_v2_rr2_Close.wav
lovel=43
hivel=84
seq_length=8
seq_position=2
amp_velcurve_84=1

<region>
sample=../Samples/perc/close/agogo/Agogo_High_v2_rr3_Close.wav
lovel=43
hivel=84
seq_length=8
seq_position=3
amp_velcurve_84=1

<region>
sample=../Samples/perc/close/agogo/Agogo_High_v2_rr4_Close.wav
lovel=43
hivel=84
seq_length=8
seq_position=4
amp_velcurve_84=1

<region>
sample=../Samples/perc/close/agogo/Agogo_High_v2_rr5_Close.wav
lovel=43
hivel=84
seq_length=8
seq_position=5
amp_velcurve_84=1

<region>
sample=../Samples/perc/close/agogo/Agogo_High_v2_rr6_Close.wav
lovel=43
hivel=84
seq_length=8
seq_position=6
amp_velcurve_84=1

<region>
sample=../Samples/perc/close/agogo/Agogo_High_v2_rr7_Close.wav
lovel=43
hivel=84
seq_length=8
seq_position=7
amp_velcurve_84=1

<region>
sample=../Samples/perc/close/agogo/Agogo_High_v2_rr8_Close.wav
lovel=43
hivel=84
seq_length=8
seq_position=8
amp_velcurve_84=1

<region>
sample=../Samples/perc/close/agogo/Agogo_High_v3_rr1_Close.wav
lovel=85
seq_length=8

<region>
sample=../Samples/perc/close/agogo/Agogo_High_v3_rr2_Close.wav
lovel=85
seq_length=8
seq_position=2

<region>
sample=../Samples/perc/close/agogo/Agogo_High_v3_rr3_Close.wav
lovel=85
seq_length=8
seq_position=3

<region>
sample=../Samples/perc/close/agogo/Agogo_High_v3_rr4_Close.wav
lovel=85
seq_length=8
seq_position=4

<region>
sample=../Samples/perc/close/agogo/Agogo_High_v3_rr5_Close.wav
lovel=85
seq_length=8
seq_position=5

<region>
sample=../Samples/perc/close/agogo/Agogo_High_v3_rr6_Close.wav
lovel=85
seq_length=8
seq_position=6

<region>
sample=../Samples/perc/close/agogo/Agogo_High_v3_rr7_Close.wav
lovel=85
seq_length=8
seq_position=7

<region>
sample=../Samples/perc/close/agogo/Agogo_High_v3_rr8_Close.wav
lovel=85
seq_length=8
seq_position=8
